# xmcd CD database file
#
# Track frame offsets:
#	150
#	38160
#	51485
#	79583
#	99327
#	129031
#	161921
#	167944
#	203454
#	217670
#	232563
#	259851
#	285161
#	296753
#	319775
#
# Disc length: 4572 seconds
#
# Revision: 0
# Processed by: cddbd v1.5.2PL0 Copyright (c) Steve Scherf et al.
# Submitted via: CDex 1.70beta2
#
DISCID=c011da0f
DTITLE=Oregon - Oregon
DYEAR=1983
DGENRE=Jazz
TTITLE0=The Rapids
TTITLE1=Beacon
TTITLE2=Taos
TTITLE3=Beside A Brook
TTITLE4=Arianna
TTITLE5=There Was No Moon That Night
TTITLE6=Skyline
TTITLE7=Impending Bloom
TTITLE8=Pageant (Pt. 1)
TTITLE9=Pageant (Pt. 2)
TTITLE10=Hand In Hand
TTITLE11=King Font
TTITLE12=Riding On The D Train
TTITLE13=Beneath An Evening Sky
TTITLE14=Chihuahua Dreams
EXTD=YEAR: 1983
EXTT0=
EXTT1=
EXTT2=
EXTT3=
EXTT4=
EXTT5=
EXTT6=
EXTT7=
EXTT8=
EXTT9=
EXTT10=
EXTT11=
EXTT12=
EXTT13=
EXTT14=
PLAYORDER=
